<svg width="25" height="25" viewBox="0 0 25 25" fill="none" xmlns="http://www.w3.org/2000/svg">
<path d="M24.3056 3.125C24.6892 3.125 25 2.77539 25 2.34375V0.78125C25 0.349609 24.6892 0 24.3056 0H0.694444C0.310764 0 0 0.349609 0 0.78125V2.34375C0 2.77539 0.310764 3.125 0.694444 3.125H1.38802V21.875H0.694444C0.310764 21.875 0 22.2246 0 22.6562V24.2188C0 24.6504 0.310764 25 0.694444 25H11.1111V21.0938C11.1111 20.6641 11.4236 20.3125 11.8056 20.3125H13.1944C13.5764 20.3125 13.8889 20.6641 13.8889 21.0938V25H24.3056C24.6892 25 25 24.6504 25 24.2188V22.6562C25 22.2246 24.6892 21.875 24.3056 21.875H23.6111V3.125H24.3056ZM11.1111 5.3125C11.1111 5 11.3889 4.6875 11.6667 4.6875H13.3333C13.6111 4.6875 13.8889 5 13.8889 5.3125V7.1875C13.8889 7.5 13.6111 7.8125 13.3333 7.8125H11.6667C11.3889 7.8125 11.1111 7.5 11.1111 7.1875V5.3125ZM11.1111 10C11.1111 9.6875 11.3889 9.375 11.6667 9.375H13.3333C13.6111 9.375 13.8889 9.6875 13.8889 10V11.875C13.8889 12.1875 13.6111 12.5 13.3333 12.5H11.6667C11.3889 12.5 11.1111 12.1875 11.1111 11.875V10ZM5.55556 5.3125C5.55556 5 5.83333 4.6875 6.11111 4.6875H7.77778C8.05556 4.6875 8.33333 5 8.33333 5.3125V7.1875C8.33333 7.5 8.05556 7.8125 7.77778 7.8125H6.11111C5.83333 7.8125 5.55556 7.5 5.55556 7.1875V5.3125ZM7.77778 12.5H6.11111C5.83333 12.5 5.55556 12.1875 5.55556 11.875V10C5.55556 9.6875 5.83333 9.375 6.11111 9.375H7.77778C8.05556 9.375 8.33333 9.6875 8.33333 10V11.875C8.33333 12.1875 8.05556 12.5 7.77778 12.5ZM8.33333 18.75C8.33333 16.1611 10.1988 14.0625 12.5 14.0625C14.8012 14.0625 16.6667 16.1611 16.6667 18.75H8.33333ZM19.4444 11.875C19.4444 12.1875 19.1667 12.5 18.8889 12.5H17.2222C16.9444 12.5 16.6667 12.1875 16.6667 11.875V10C16.6667 9.6875 16.9444 9.375 17.2222 9.375H18.8889C19.1667 9.375 19.4444 9.6875 19.4444 10V11.875ZM19.4444 7.1875C19.4444 7.5 19.1667 7.8125 18.8889 7.8125H17.2222C16.9444 7.8125 16.6667 7.5 16.6667 7.1875V5.3125C16.6667 5 16.9444 4.6875 17.2222 4.6875H18.8889C19.1667 4.6875 19.4444 5 19.4444 5.3125V7.1875Z" fill="white"/>
</svg>
