<svg width="25" height="25" viewBox="0 0 25 25" fill="none" xmlns="http://www.w3.org/2000/svg">
<path d="M24.6094 23.4375H0.390625C0.15625 23.4375 0 23.6328 0 23.8281V24.6094C0 24.8047 0.15625 25 0.390625 25H24.6094C24.8047 25 25 24.8047 25 24.6094V23.8281C25 23.6328 24.8047 23.4375 24.6094 23.4375Z" fill="#62727A"/>
<path d="M15.625 25H9.375L10.9375 23.4375H14.0625L15.625 25Z" fill="#ED4C5C"/>
<path d="M19.9219 14.0625H5.07812C4.21875 14.0625 3.51562 14.7656 3.51562 15.625V23.4375H21.4844V15.625C21.4844 14.7656 20.7813 14.0625 19.9219 14.0625Z" fill="#E8E8E8"/>
<path d="M15.625 8.59375H9.375C8.51562 8.59375 7.8125 9.29687 7.8125 10.1562V14.0625H17.1875V10.1562C17.1875 9.29687 16.4844 8.59375 15.625 8.59375Z" fill="#E8E8E8"/>
<path d="M7.42188 17.1875H17.5781V19.5312H7.42188V17.1875Z" fill="#62727A"/>
<path d="M8.24219 14.6875V15.4297H8.98437V14.6875H9.41406V16.5625H8.98437V15.7813H8.28125V16.5625H7.8125V14.6875H8.24219Z" fill="#62727A"/>
<path d="M11.8359 15.625C11.8359 16.25 11.4453 16.6016 10.8984 16.6016C10.3125 16.6016 10 16.1719 10 15.625C10 15.0391 10.3516 14.6484 10.9375 14.6484C11.5234 14.6484 11.8359 15.0781 11.8359 15.625ZM10.4297 15.625C10.4297 15.9766 10.625 16.25 10.8984 16.25C11.2109 16.25 11.3672 15.9766 11.3672 15.625C11.3672 15.2734 11.2109 15 10.8984 15C10.625 15 10.4297 15.2734 10.4297 15.625Z" fill="#62727A"/>
<path d="M12.6953 15.0391H12.1875V14.6875H13.6719V15.0391H13.1641V16.5625H12.7344V15.0391H12.6953Z" fill="#62727A"/>
<path d="M15.3125 15.7813H14.6094V16.2109H15.3906V16.5625H14.1797V14.6875H15.3516V15.0391H14.6094V15.4297H15.3125V15.7813Z" fill="#62727A"/>
<path d="M15.9766 14.6875H16.4062V16.2109H17.1875V16.5625H15.9766V14.6875Z" fill="#62727A"/>
<path d="M13.2812 18.1641H12.6953L12.5 17.5781L12.3047 18.1641H11.7188L12.1875 18.5547L12.0312 19.1406L12.5 18.7891L12.9688 19.1406L12.8125 18.5547L13.2812 18.1641Z" fill="#FFDD7D"/>
<path d="M11.3281 18.1641H10.7422L10.5469 17.5781L10.3516 18.1641H9.76562L10.2344 18.5547L10.0781 19.1406L10.5469 18.7891L11.0156 19.1406L10.8594 18.5547L11.3281 18.1641Z" fill="#FFDD7D"/>
<path d="M15.2344 18.1641H14.6484L14.4531 17.5781L14.2578 18.1641H13.6719L14.1406 18.5547L13.9844 19.1406L14.4531 18.7891L14.9219 19.1406L14.7656 18.5547L15.2344 18.1641Z" fill="#FFDD7D"/>
<path d="M17.1875 18.1641H16.6016L16.4062 17.5781L16.2109 18.1641H15.625L16.0938 18.5547L15.9375 19.1406L16.4062 18.7891L16.875 19.1406L16.7187 18.5547L17.1875 18.1641Z" fill="#FFDD7D"/>
<path d="M9.375 18.1641H8.78906L8.59375 17.5781L8.39844 18.1641H7.8125L8.28125 18.5547L8.125 19.1406L8.59375 18.7891L9.0625 19.1406L8.90625 18.5547L9.375 18.1641Z" fill="#FFDD7D"/>
<path d="M8.20312 19.5312H9.76562V23.4375H8.20312V19.5312Z" fill="#B2C1C0"/>
<path d="M15.2344 19.5312H16.7969V23.4375H15.2344V19.5312Z" fill="#B2C1C0"/>
<path d="M10.9375 19.5312H14.0625V23.4375H10.9375V19.5312Z" fill="#42ADE2"/>
<path d="M12.1094 19.5312H12.8906V23.4375H12.1094V19.5312Z" fill="#E8E8E8"/>
<path d="M10.9375 19.5312H12.1094V20.3125H10.9375V19.5312Z" fill="#428BC1"/>
<path d="M12.8906 19.5312H14.0625V20.3125H12.8906V19.5312Z" fill="#428BC1"/>
<path d="M12.1094 19.5312H12.8906V20.3125H12.1094V19.5312Z" fill="#B2C1C0"/>
<path d="M12.8906 0.390625C12.8906 0.15625 12.6953 0 12.5 0C12.2656 0 12.1094 0.15625 12.1094 0.390625V3.90625C12.1094 4.14063 12.2656 4.29688 12.5 4.29688C12.6953 4.29688 12.8906 4.14063 12.8906 3.90625V0.390625Z" fill="#B2C1C0"/>
<path d="M14.1797 4.80469L13.5547 4.17969C13.3984 4.02344 13.0859 3.90625 12.8906 3.90625H12.1094C11.875 3.90625 11.6016 4.02344 11.4453 4.17969L10.8203 4.80469C10.6641 4.96094 10.5469 5.23437 10.5469 5.46875V8.59375H14.4531V5.46875C14.4531 5.23437 14.3359 4.96094 14.1797 4.80469" fill="#E8E8E8"/>
<path d="M6.25 15.2344H4.6875C4.45312 15.2344 4.29688 15.4297 4.29688 15.625V16.4062C4.29688 16.6016 4.45312 16.7969 4.6875 16.7969H6.25C6.44531 16.7969 6.64062 16.6016 6.64062 16.4062V15.625C6.64062 15.4297 6.44531 15.2344 6.25 15.2344Z" fill="#42ADE2"/>
<path d="M13.2812 9.375H11.7188C11.4844 9.375 11.3281 9.57031 11.3281 9.76562V12.8906C11.3281 13.0859 11.4844 13.2812 11.7188 13.2812H13.2812C13.4766 13.2812 13.6719 13.0859 13.6719 12.8906V9.76562C13.6719 9.57031 13.4766 9.375 13.2812 9.375Z" fill="#42ADE2"/>
<path d="M20.3125 15.2344H18.75C18.5156 15.2344 18.3594 15.4297 18.3594 15.625V16.4062C18.3594 16.6016 18.5156 16.7969 18.75 16.7969H20.3125C20.5078 16.7969 20.7031 16.6016 20.7031 16.4062V15.625C20.7031 15.4297 20.5078 15.2344 20.3125 15.2344Z" fill="#42ADE2"/>
<path d="M6.25 17.9688H4.6875C4.45312 17.9688 4.29688 18.1641 4.29688 18.3594V19.1406C4.29688 19.3359 4.45312 19.5312 4.6875 19.5312H6.25C6.44531 19.5312 6.64062 19.3359 6.64062 19.1406V18.3594C6.64062 18.1641 6.44531 17.9688 6.25 17.9688Z" fill="#42ADE2"/>
<path d="M20.3125 17.9688H18.75C18.5156 17.9688 18.3594 18.1641 18.3594 18.3594V19.1406C18.3594 19.3359 18.5156 19.5312 18.75 19.5312H20.3125C20.5078 19.5312 20.7031 19.3359 20.7031 19.1406V18.3594C20.7031 18.1641 20.5078 17.9688 20.3125 17.9688Z" fill="#42ADE2"/>
<path d="M6.25 20.7031H4.6875C4.45312 20.7031 4.29688 20.8984 4.29688 21.0938V21.875C4.29688 22.0703 4.45312 22.2656 4.6875 22.2656H6.25C6.44531 22.2656 6.64062 22.0703 6.64062 21.875V21.0938C6.64062 20.8984 6.44531 20.7031 6.25 20.7031Z" fill="#42ADE2"/>
<path d="M20.3125 20.7031H18.75C18.5156 20.7031 18.3594 20.8984 18.3594 21.0938V21.875C18.3594 22.0703 18.5156 22.2656 18.75 22.2656H20.3125C20.5078 22.2656 20.7031 22.0703 20.7031 21.875V21.0938C20.7031 20.8984 20.5078 20.7031 20.3125 20.7031Z" fill="#42ADE2"/>
<path d="M12.1094 5.85938C12.1094 5.625 11.9141 5.46875 11.7188 5.46875C11.4844 5.46875 11.3281 5.625 11.3281 5.85938V7.42188C11.3281 7.61719 11.4844 7.8125 11.7188 7.8125C11.9141 7.8125 12.1094 7.61719 12.1094 7.42188V5.85938Z" fill="#42ADE2"/>
<path d="M13.6719 5.85938C13.6719 5.625 13.4766 5.46875 13.2812 5.46875C13.0469 5.46875 12.8906 5.625 12.8906 5.85938V7.42188C12.8906 7.61719 13.0469 7.8125 13.2812 7.8125C13.4766 7.8125 13.6719 7.61719 13.6719 7.42188V5.85938Z" fill="#42ADE2"/>
<path d="M8.98438 9.375C8.75 9.375 8.59375 9.57031 8.59375 9.76562V10.5469C8.59375 10.7422 8.75 10.9375 8.98438 10.9375H10.1562C10.3516 10.9375 10.5469 10.7422 10.5469 10.5469V9.76562C10.5469 9.57031 10.3516 9.375 10.1562 9.375H8.98438Z" fill="#42ADE2"/>
<path d="M8.98438 11.7188C8.75 11.7188 8.59375 11.9141 8.59375 12.1094V12.8906C8.59375 13.0859 8.75 13.2812 8.98438 13.2812H10.1562C10.3516 13.2812 10.5469 13.0859 10.5469 12.8906V12.1094C10.5469 11.9141 10.3516 11.7188 10.1562 11.7188H8.98438Z" fill="#42ADE2"/>
<path d="M14.8438 9.375C14.6094 9.375 14.4531 9.57031 14.4531 9.76562V10.5469C14.4531 10.7422 14.6094 10.9375 14.8438 10.9375H16.0156C16.2109 10.9375 16.4062 10.7422 16.4062 10.5469V9.76562C16.4062 9.57031 16.2109 9.375 16.0156 9.375H14.8438Z" fill="#42ADE2"/>
<path d="M14.8438 11.7188C14.6094 11.7188 14.4531 11.9141 14.4531 12.1094V12.8906C14.4531 13.0859 14.6094 13.2812 14.8438 13.2812H16.0156C16.2109 13.2812 16.4062 13.0859 16.4062 12.8906V12.1094C16.4062 11.9141 16.2109 11.7188 16.0156 11.7188H14.8438Z" fill="#42ADE2"/>
<path d="M12.8906 0.546877V2.53907C13.9453 3.125 14.1797 1.95313 15.2344 2.53907V0.546877C14.1797 -0.03906 13.9453 1.17188 12.8906 0.546877Z" fill="#ED4C5C"/>
<path d="M3.90625 15.4297H3.4375C3.4375 15.4297 2.89063 18.3203 3.35938 23.4375H4.57031C4.53125 23.4375 3.90625 20.1563 3.90625 15.4297Z" fill="#DBB471"/>
<path d="M3.90625 14.9609C3.90625 14.9609 2.22656 11.6406 0 14.2969C0 14.2969 1.67969 13.5547 3.63281 15.8594L3.90625 14.9609Z" fill="#83BF4F"/>
<path d="M3.20312 15.1172L4.0625 15.5859C6.13281 13.2422 7.85156 14.7656 7.85156 14.7656C5.78125 12.0703 3.20312 15.1172 3.20312 15.1172" fill="#83BF4F"/>
<path d="M3.59375 15.1172C3.59375 15.1172 0.820312 15.1953 1.25 18.6328C1.25 18.6328 1.28906 16.2109 4.0625 15.9375L3.59375 15.1172Z" fill="#83BF4F"/>
<path d="M3.59375 14.9609V15.9375C6.64063 16.6016 6.17188 18.8281 6.17188 18.8281C7.5 15.7031 3.59375 14.9609 3.59375 14.9609Z" fill="#83BF4F"/>
<path d="M3.20312 22.3438C3.20312 22.3438 3.78906 23.2031 4.53125 22.3438H3.20312Z" fill="#89664C"/>
<path d="M3.08594 21.0156C3.08594 21.0156 3.67188 21.875 4.41406 21.0156H3.08594Z" fill="#89664C"/>
<path d="M3.00781 19.6875C3.00781 19.6875 3.47656 20.5469 4.14063 19.6875H3.00781Z" fill="#89664C"/>
<path d="M3.00781 18.3594C3.00781 18.3594 3.47656 19.2188 4.14063 18.3594H3.00781Z" fill="#89664C"/>
<path d="M3.08594 17.0312C3.08594 17.0312 3.47656 17.8906 4.02344 17.0312H3.08594Z" fill="#89664C"/>
<path d="M21.0938 15.4297H21.5625C21.5625 15.4297 22.1094 18.3203 21.6406 23.4375H20.4297C20.4687 23.4375 21.0938 20.1563 21.0938 15.4297" fill="#DBB471"/>
<path d="M21.0938 14.9609C21.0938 14.9609 22.7734 11.6406 25 14.2969C25 14.2969 23.3203 13.5547 21.3672 15.8594L21.0938 14.9609Z" fill="#83BF4F"/>
<path d="M21.7969 15.1172L20.9375 15.5859C18.8672 13.2422 17.1484 14.7656 17.1484 14.7656C19.2188 12.0703 21.7969 15.1172 21.7969 15.1172" fill="#83BF4F"/>
<path d="M21.4063 15.1172C21.4063 15.1172 24.1797 15.1953 23.75 18.6328C23.75 18.6328 23.7109 16.2109 20.9375 15.9375L21.4063 15.1172Z" fill="#83BF4F"/>
<path d="M21.4062 14.9609V15.9375C18.3594 16.6016 18.8281 18.8281 18.8281 18.8281C17.5 15.7031 21.4062 14.9609 21.4062 14.9609Z" fill="#83BF4F"/>
<path d="M21.7969 22.3438C21.7969 22.3438 21.2109 23.2031 20.4688 22.3438H21.7969Z" fill="#89664C"/>
<path d="M21.9141 21.0156C21.9141 21.0156 21.3281 21.875 20.5859 21.0156H21.9141Z" fill="#89664C"/>
<path d="M21.9922 19.6875C21.9922 19.6875 21.5234 20.5469 20.8594 19.6875H21.9922Z" fill="#89664C"/>
<path d="M21.9922 18.3594C21.9922 18.3594 21.5234 19.2188 20.8594 18.3594H21.9922Z" fill="#89664C"/>
<path d="M21.9141 17.0312C21.9141 17.0312 21.5234 17.8906 20.9766 17.0312H21.9141Z" fill="#89664C"/>
</svg>
