<svg width="25" height="25" viewBox="0 0 25 25" fill="none" xmlns="http://www.w3.org/2000/svg">
<path fill-rule="evenodd" clip-rule="evenodd" d="M5.20833 9.37492C4.6558 9.37492 4.12589 9.15543 3.73519 8.76472C3.34449 8.37402 3.125 7.84412 3.125 7.29159V4.16659C3.125 3.61405 3.34449 3.08415 3.73519 2.69345C4.12589 2.30275 4.6558 2.08325 5.20833 2.08325H9.375C9.92753 2.08325 10.4574 2.30275 10.8481 2.69345C11.2388 3.08415 11.4583 3.61405 11.4583 4.16659V7.29159C11.4583 7.84412 11.2388 8.37402 10.8481 8.76472C10.4574 9.15543 9.92753 9.37492 9.375 9.37492H5.20833ZM5.20833 22.9166C4.6558 22.9166 4.12589 22.6971 3.73519 22.3064C3.34449 21.9157 3.125 21.3858 3.125 20.8333V12.4999C3.125 11.9474 3.34449 11.4175 3.73519 11.0268C4.12589 10.6361 4.6558 10.4166 5.20833 10.4166H9.375C9.92753 10.4166 10.4574 10.6361 10.8481 11.0268C11.2388 11.4175 11.4583 11.9474 11.4583 12.4999V20.8333C11.4583 21.3858 11.2388 21.9157 10.8481 22.3064C10.4574 22.6971 9.92753 22.9166 9.375 22.9166H5.20833ZM15.625 22.9166C15.0725 22.9166 14.5426 22.6971 14.1519 22.3064C13.7612 21.9157 13.5417 21.3858 13.5417 20.8333V18.7499C13.5417 18.1974 13.7612 17.6675 14.1519 17.2768C14.5426 16.8861 15.0725 16.6666 15.625 16.6666H19.7917C20.3442 16.6666 20.8741 16.8861 21.2648 17.2768C21.6555 17.6675 21.875 18.1974 21.875 18.7499V20.8333C21.875 21.3858 21.6555 21.9157 21.2648 22.3064C20.8741 22.6971 20.3442 22.9166 19.7917 22.9166H15.625ZM15.625 14.5833C15.0725 14.5833 14.5426 14.3638 14.1519 13.9731C13.7612 13.5824 13.5417 13.0525 13.5417 12.4999V4.16659C13.5417 3.61405 13.7612 3.08415 14.1519 2.69345C14.5426 2.30275 15.0725 2.08325 15.625 2.08325H19.7917C20.3442 2.08325 20.8741 2.30275 21.2648 2.69345C21.6555 3.08415 21.875 3.61405 21.875 4.16659V12.4999C21.875 13.0525 21.6555 13.5824 21.2648 13.9731C20.8741 14.3638 20.3442 14.5833 19.7917 14.5833H15.625Z" fill="#B89A9A"/>
</svg>
