<svg width="19" height="21" viewBox="0 0 19 21" fill="none" xmlns="http://www.w3.org/2000/svg">
<path fill-rule="evenodd" clip-rule="evenodd" d="M2.08333 7.29167C1.5308 7.29167 1.00089 7.07217 0.610194 6.68147C0.219493 6.29077 0 5.76087 0 5.20833V2.08333C0 1.5308 0.219493 1.00089 0.610194 0.610194C1.00089 0.219493 1.5308 0 2.08333 0H6.25C6.80253 0 7.33244 0.219493 7.72314 0.610194C8.11384 1.00089 8.33333 1.5308 8.33333 2.08333V5.20833C8.33333 5.76087 8.11384 6.29077 7.72314 6.68147C7.33244 7.07217 6.80253 7.29167 6.25 7.29167H2.08333ZM2.08333 20.8333C1.5308 20.8333 1.00089 20.6138 0.610194 20.2231C0.219493 19.8324 0 19.3025 0 18.75V10.4167C0 9.86413 0.219493 9.33423 0.610194 8.94353C1.00089 8.55283 1.5308 8.33333 2.08333 8.33333H6.25C6.80253 8.33333 7.33244 8.55283 7.72314 8.94353C8.11384 9.33423 8.33333 9.86413 8.33333 10.4167V18.75C8.33333 19.3025 8.11384 19.8324 7.72314 20.2231C7.33244 20.6138 6.80253 20.8333 6.25 20.8333H2.08333ZM12.5 20.8333C11.9475 20.8333 11.4176 20.6138 11.0269 20.2231C10.6362 19.8324 10.4167 19.3025 10.4167 18.75V16.6667C10.4167 16.1141 10.6362 15.5842 11.0269 15.1935C11.4176 14.8028 11.9475 14.5833 12.5 14.5833H16.6667C17.2192 14.5833 17.7491 14.8028 18.1398 15.1935C18.5305 15.5842 18.75 16.1141 18.75 16.6667V18.75C18.75 19.3025 18.5305 19.8324 18.1398 20.2231C17.7491 20.6138 17.2192 20.8333 16.6667 20.8333H12.5ZM12.5 12.5C11.9475 12.5 11.4176 12.2805 11.0269 11.8898C10.6362 11.4991 10.4167 10.9692 10.4167 10.4167V2.08333C10.4167 1.5308 10.6362 1.00089 11.0269 0.610194C11.4176 0.219493 11.9475 0 12.5 0H16.6667C17.2192 0 17.7491 0.219493 18.1398 0.610194C18.5305 1.00089 18.75 1.5308 18.75 2.08333V10.4167C18.75 10.9692 18.5305 11.4991 18.1398 11.8898C17.7491 12.2805 17.2192 12.5 16.6667 12.5H12.5Z" fill="white"/>
</svg>
